<?xml version="1.0" encoding="UTF-8"?>
<svg xmlns="http://www.w3.org/2000/svg" xmlns:xlink="http://www.w3.org/1999/xlink" width="400pt" height="400pt" viewBox="0 0 400 400" version="1.1">
<g id="surface1">
<path style=" stroke:none;fill-rule:nonzero;fill:rgb(0%,0%,0%);fill-opacity:1;" d="M 399.914062 239.441406 C 399.914062 186.347656 378.042969 116.921875 317.171875 92.003906 L 317.171875 65.402344 L 335.273438 50.925781 C 336.90625 49.617188 337.859375 47.632812 337.859375 45.539062 L 337.859375 6.925781 C 337.859375 3.117188 334.773438 0.03125 330.964844 0.03125 L 310.277344 0.03125 C 308.449219 0.03125 306.695312 0.761719 305.40625 2.050781 L 296.488281 10.96875 L 287.574219 2.050781 C 286.277344 0.761719 284.527344 0.03125 282.699219 0.03125 L 255.117188 0.03125 C 253.289062 0.03125 251.535156 0.761719 250.242188 2.050781 L 241.328125 10.96875 L 232.414062 2.050781 C 231.117188 0.761719 229.367188 0.03125 227.539062 0.03125 L 206.851562 0.03125 C 203.046875 0.03125 199.957031 3.117188 199.957031 6.925781 L 199.957031 45.539062 C 199.957031 47.632812 200.910156 49.617188 202.542969 50.925781 L 220.640625 65.402344 L 220.640625 92.003906 C 159.773438 116.921875 137.902344 186.375 137.902344 239.441406 C 137.773438 251.890625 139.707031 264.277344 143.625 276.09375 C 140.660156 275.929688 137.675781 275.832031 134.695312 275.832031 L 117.214844 275.832031 C 117.214844 272.027344 114.128906 268.9375 110.320312 268.9375 L 55.160156 268.9375 C 51.351562 268.9375 48.265625 272.027344 48.265625 275.832031 L 0 275.832031 L 0 289.625 L 48.265625 289.625 L 48.265625 358.574219 L 0 358.574219 L 0 372.367188 L 48.265625 372.367188 C 48.265625 376.171875 51.351562 379.261719 55.160156 379.261719 L 110.320312 379.261719 C 114.128906 379.261719 117.214844 376.171875 117.214844 372.367188 L 117.214844 369.738281 L 168.695312 391.113281 C 196.757812 402.574219 228.132812 402.921875 256.441406 392.085938 L 362.957031 351.46875 C 369.265625 349.070312 374.34375 344.230469 377.042969 338.039062 C 381.1875 328.800781 379.429688 317.980469 372.578125 310.523438 C 391.132812 291.636719 401.035156 265.898438 399.914062 239.441406 Z M 103.425781 365.46875 L 62.054688 365.46875 L 62.054688 282.730469 L 103.425781 282.730469 Z M 213.75 42.230469 L 213.75 13.820312 L 224.683594 13.820312 L 236.453125 25.59375 C 239.144531 28.285156 243.507812 28.285156 246.203125 25.59375 L 257.972656 13.820312 L 279.84375 13.820312 L 291.613281 25.59375 C 294.304688 28.285156 298.667969 28.285156 301.363281 25.59375 L 313.132812 13.820312 L 324.070312 13.820312 L 324.070312 42.230469 L 307.859375 55.191406 L 229.945312 55.191406 Z M 303.382812 68.980469 L 303.382812 89.667969 L 234.433594 89.667969 L 234.433594 68.980469 Z M 364.398438 332.484375 C 363.179688 335.300781 360.878906 337.507812 358.015625 338.601562 L 251.5 379.210938 C 226.472656 388.800781 198.730469 388.5 173.914062 378.378906 L 117.214844 354.804688 L 117.214844 289.625 L 134.695312 289.625 C 157.558594 289.652344 180.101562 294.972656 200.566406 305.171875 C 207.320312 308.542969 214.765625 310.304688 222.316406 310.308594 L 275.800781 310.308594 C 281.515625 310.34375 286.113281 315.003906 286.078125 320.71875 C 286.046875 325.503906 282.738281 329.640625 278.078125 330.726562 C 277.175781 330.808594 276.292969 330.992188 275.375 330.992188 L 193.0625 330.992188 L 193.0625 344.785156 L 275.375 344.785156 C 275.523438 344.785156 275.660156 344.785156 275.800781 344.785156 C 275.941406 344.785156 276.070312 344.746094 276.21875 344.746094 C 281.6875 344.65625 287.09375 343.507812 292.128906 341.371094 L 349.78125 316.902344 C 352.527344 315.730469 355.632812 315.730469 358.378906 316.902344 C 361.234375 318.105469 363.476562 320.425781 364.585938 323.320312 C 365.757812 326.277344 365.6875 329.578125 364.398438 332.484375 Z M 360.289062 303.109375 C 355.015625 301.695312 349.421875 302.085938 344.386719 304.207031 L 299.679688 323.191406 C 299.8125 322.347656 299.894531 321.503906 299.9375 320.652344 C 299.9375 307.324219 289.132812 296.519531 275.800781 296.519531 L 222.316406 296.519531 C 216.90625 296.511719 211.570312 295.25 206.730469 292.835938 C 191.761719 285.398438 175.734375 280.320312 159.214844 277.792969 C 154.0625 265.671875 151.5 252.609375 151.691406 239.441406 C 151.691406 189.796875 171.96875 124.628906 228.914062 103.457031 L 308.898438 103.457031 C 365.84375 124.628906 386.125 189.796875 386.125 239.441406 C 387.285156 263.429688 377.835938 286.710938 360.289062 303.109375 Z M 360.289062 303.109375 "/>
<path style=" stroke:none;fill-rule:nonzero;fill:rgb(0%,0%,0%);fill-opacity:1;" d="M 75.84375 337.890625 L 89.636719 337.890625 L 89.636719 351.679688 L 75.84375 351.679688 Z M 75.84375 337.890625 "/>
<path style=" stroke:none;fill-rule:nonzero;fill:rgb(0%,0%,0%);fill-opacity:1;" d="M 283.554688 197.601562 L 258.628906 189.292969 C 255.9375 188.414062 254.472656 185.519531 255.355469 182.832031 C 256.046875 180.71875 258.019531 179.296875 260.242188 179.304688 L 277.574219 179.304688 C 280.40625 179.304688 282.699219 181.605469 282.699219 184.433594 L 282.699219 188.957031 L 296.488281 188.957031 L 296.488281 184.433594 C 296.480469 173.988281 288.019531 165.523438 277.574219 165.511719 L 275.800781 165.511719 L 275.800781 151.722656 L 262.011719 151.722656 L 262.011719 165.511719 L 260.242188 165.511719 C 249.796875 165.507812 241.320312 173.96875 241.316406 184.414062 C 241.308594 192.566406 246.527344 199.800781 254.261719 202.375 L 279.191406 210.679688 C 281.875 211.5625 283.34375 214.460938 282.460938 217.148438 C 281.769531 219.257812 279.796875 220.683594 277.574219 220.671875 L 260.242188 220.671875 C 257.410156 220.667969 255.117188 218.375 255.117188 215.542969 L 255.117188 211.019531 L 241.328125 211.019531 L 241.328125 215.542969 C 241.335938 225.984375 249.796875 234.453125 260.242188 234.464844 L 262.011719 234.464844 L 262.011719 248.253906 L 275.800781 248.253906 L 275.800781 234.464844 L 277.574219 234.464844 C 288.023438 234.46875 296.492188 226.011719 296.503906 215.5625 C 296.507812 207.414062 291.289062 200.175781 283.554688 197.601562 Z M 283.554688 197.601562 "/>
<path style=" stroke:none;fill-rule:nonzero;fill:rgb(0%,0%,0%);fill-opacity:1;" d="M 268.910156 124.140625 C 227.019531 124.140625 193.0625 158.097656 193.0625 199.988281 C 193.113281 241.855469 227.042969 275.785156 268.910156 275.832031 C 310.796875 275.832031 344.753906 241.875 344.753906 199.988281 C 344.753906 158.097656 310.796875 124.140625 268.910156 124.140625 Z M 268.910156 262.046875 C 234.636719 262.046875 206.851562 234.257812 206.851562 199.988281 C 206.890625 165.730469 234.652344 137.96875 268.910156 137.933594 C 303.179688 137.933594 330.964844 165.714844 330.964844 199.988281 C 330.964844 234.261719 303.179688 262.046875 268.910156 262.046875 Z M 268.910156 262.046875 "/>
</g>
</svg>
